%TF.GenerationSoftware,KiCad,Pcbnew,9.0.6*%
%TF.CreationDate,2026-05-26T14:44:59+03:00*%
%TF.ProjectId,Vibration_dsPIC33,56696272-6174-4696-9f6e-5f6473504943,rev?*%
%TF.SameCoordinates,Original*%
%TF.FileFunction,Soldermask,Top*%
%TF.FilePolarity,Negative*%
%FSLAX46Y46*%
G04 Gerber Fmt 4.6, Leading zero omitted, Abs format (unit mm)*
G04 Created by KiCad (PCBNEW 9.0.6) date 2026-05-26 14:44:59*
%MOMM*%
%LPD*%
G01*
G04 APERTURE LIST*
G04 Aperture macros list*
%AMRoundRect*
0 Rectangle with rounded corners*
0 $1 Rounding radius*
0 $2 $3 $4 $5 $6 $7 $8 $9 X,Y pos of 4 corners*
0 Add a 4 corners polygon primitive as box body*
4,1,4,$2,$3,$4,$5,$6,$7,$8,$9,$2,$3,0*
0 Add four circle primitives for the rounded corners*
1,1,$1+$1,$2,$3*
1,1,$1+$1,$4,$5*
1,1,$1+$1,$6,$7*
1,1,$1+$1,$8,$9*
0 Add four rect primitives between the rounded corners*
20,1,$1+$1,$2,$3,$4,$5,0*
20,1,$1+$1,$4,$5,$6,$7,0*
20,1,$1+$1,$6,$7,$8,$9,0*
20,1,$1+$1,$8,$9,$2,$3,0*%
G04 Aperture macros list end*
%ADD10RoundRect,0.237500X0.300000X0.237500X-0.300000X0.237500X-0.300000X-0.237500X0.300000X-0.237500X0*%
%ADD11RoundRect,0.237500X-0.237500X0.300000X-0.237500X-0.300000X0.237500X-0.300000X0.237500X0.300000X0*%
%ADD12R,1.500000X1.800000*%
%ADD13R,1.450000X0.450000*%
%ADD14RoundRect,0.237500X-0.300000X-0.237500X0.300000X-0.237500X0.300000X0.237500X-0.300000X0.237500X0*%
%ADD15RoundRect,0.237500X0.250000X0.237500X-0.250000X0.237500X-0.250000X-0.237500X0.250000X-0.237500X0*%
%ADD16RoundRect,0.150000X-0.512500X-0.150000X0.512500X-0.150000X0.512500X0.150000X-0.512500X0.150000X0*%
%ADD17RoundRect,0.250000X0.325000X0.450000X-0.325000X0.450000X-0.325000X-0.450000X0.325000X-0.450000X0*%
%ADD18RoundRect,0.050000X0.375000X-0.375000X0.375000X0.375000X-0.375000X0.375000X-0.375000X-0.375000X0*%
%ADD19C,0.850000*%
%ADD20RoundRect,0.287500X-0.287500X0.350000X-0.287500X-0.350000X0.287500X-0.350000X0.287500X0.350000X0*%
%ADD21RoundRect,0.250000X-0.450000X0.325000X-0.450000X-0.325000X0.450000X-0.325000X0.450000X0.325000X0*%
%ADD22RoundRect,0.237500X0.237500X-0.300000X0.237500X0.300000X-0.237500X0.300000X-0.237500X-0.300000X0*%
%ADD23RoundRect,0.237500X-0.287500X-0.237500X0.287500X-0.237500X0.287500X0.237500X-0.287500X0.237500X0*%
%ADD24RoundRect,0.250000X-0.475000X0.337500X-0.475000X-0.337500X0.475000X-0.337500X0.475000X0.337500X0*%
%ADD25RoundRect,0.087500X0.087500X-0.400000X0.087500X0.400000X-0.087500X0.400000X-0.087500X-0.400000X0*%
%ADD26RoundRect,0.087500X0.400000X-0.087500X0.400000X0.087500X-0.400000X0.087500X-0.400000X-0.087500X0*%
%ADD27R,2.400000X2.400000*%
%ADD28RoundRect,0.237500X0.237500X-0.250000X0.237500X0.250000X-0.237500X0.250000X-0.237500X-0.250000X0*%
%ADD29RoundRect,0.237500X0.237500X-0.287500X0.237500X0.287500X-0.237500X0.287500X-0.237500X-0.287500X0*%
%ADD30RoundRect,0.100000X-0.637500X-0.100000X0.637500X-0.100000X0.637500X0.100000X-0.637500X0.100000X0*%
%ADD31RoundRect,0.237500X-0.250000X-0.237500X0.250000X-0.237500X0.250000X0.237500X-0.250000X0.237500X0*%
%ADD32RoundRect,0.137500X-0.600000X-0.137500X0.600000X-0.137500X0.600000X0.137500X-0.600000X0.137500X0*%
%ADD33RoundRect,0.137500X-0.137500X-0.600000X0.137500X-0.600000X0.137500X0.600000X-0.137500X0.600000X0*%
%ADD34RoundRect,0.250000X1.300000X0.250000X-1.300000X0.250000X-1.300000X-0.250000X1.300000X-0.250000X0*%
%ADD35RoundRect,0.250000X-0.685000X0.335000X-0.685000X-0.335000X0.685000X-0.335000X0.685000X0.335000X0*%
%ADD36O,1.870000X1.170000*%
%ADD37RoundRect,0.160000X-0.197500X-0.160000X0.197500X-0.160000X0.197500X0.160000X-0.197500X0.160000X0*%
G04 APERTURE END LIST*
D10*
%TO.C,C9*%
X126862500Y-86880000D03*
X125137500Y-86880000D03*
%TD*%
D11*
%TO.C,C17*%
X142900000Y-104312500D03*
X142900000Y-106037500D03*
%TD*%
D12*
%TO.C,U4*%
X130350000Y-102250000D03*
X130350000Y-104050000D03*
X131850000Y-102250000D03*
X131850000Y-104050000D03*
D13*
X128150000Y-101200000D03*
X128150000Y-101850000D03*
X128150000Y-102500000D03*
X128150000Y-103150000D03*
X128150000Y-103800000D03*
X128150000Y-104450000D03*
X128150000Y-105100000D03*
X134050000Y-105100000D03*
X134050000Y-104450000D03*
X134050000Y-103800000D03*
X134050000Y-103150000D03*
X134050000Y-102500000D03*
X134050000Y-101850000D03*
X134050000Y-101200000D03*
%TD*%
D10*
%TO.C,C22*%
X173275000Y-113040000D03*
X171550000Y-113040000D03*
%TD*%
D14*
%TO.C,C21*%
X167675000Y-113040000D03*
X169400000Y-113040000D03*
%TD*%
D15*
%TO.C,R4*%
X151352500Y-104760000D03*
X149527500Y-104760000D03*
%TD*%
D11*
%TO.C,C18*%
X169227000Y-93155500D03*
X169227000Y-94880500D03*
%TD*%
D16*
%TO.C,U2*%
X139775000Y-90300000D03*
X139775000Y-91250000D03*
X139775000Y-92200000D03*
X142050000Y-92200000D03*
X142050000Y-90300000D03*
%TD*%
D11*
%TO.C,C6*%
X121187200Y-102882300D03*
X121187200Y-104607300D03*
%TD*%
%TO.C,C4*%
X118647200Y-102882300D03*
X118647200Y-104607300D03*
%TD*%
%TO.C,C5*%
X149500000Y-93537500D03*
X149500000Y-95262500D03*
%TD*%
D16*
%TO.C,U3*%
X135850000Y-114250000D03*
X135850000Y-115200000D03*
X135850000Y-116150000D03*
X138125000Y-116150000D03*
X138125000Y-114250000D03*
%TD*%
D10*
%TO.C,C10*%
X134339300Y-99372300D03*
X132614300Y-99372300D03*
%TD*%
D15*
%TO.C,R5*%
X130422500Y-86960000D03*
X128597500Y-86960000D03*
%TD*%
D17*
%TO.C,D2*%
X151430000Y-106760000D03*
X149380000Y-106760000D03*
%TD*%
D11*
%TO.C,C16*%
X140125000Y-114325000D03*
X140125000Y-116050000D03*
%TD*%
D18*
%TO.C,J2*%
X170294000Y-103901200D03*
D19*
X171294000Y-103901200D03*
X172294000Y-103901200D03*
X173294000Y-103901200D03*
X174294000Y-103901200D03*
X175294000Y-103901200D03*
%TD*%
D15*
%TO.C,R1*%
X148542500Y-87730000D03*
X146717500Y-87730000D03*
%TD*%
D20*
%TO.C,C11*%
X136450000Y-100463400D03*
X136450000Y-102188400D03*
%TD*%
D11*
%TO.C,C13*%
X133325000Y-114225000D03*
X133325000Y-115950000D03*
%TD*%
D21*
%TO.C,D1*%
X116361200Y-102465800D03*
X116361200Y-104515800D03*
%TD*%
D22*
%TO.C,C2*%
X165225000Y-95130000D03*
X165225000Y-93405000D03*
%TD*%
D23*
%TO.C,L1*%
X119042200Y-100950800D03*
X120792200Y-100950800D03*
%TD*%
D10*
%TO.C,C24*%
X166362500Y-116340000D03*
X164637500Y-116340000D03*
%TD*%
D11*
%TO.C,C14*%
X169227000Y-89605500D03*
X169227000Y-91330500D03*
%TD*%
D24*
%TO.C,C12*%
X130925000Y-113912500D03*
X130925000Y-115987500D03*
%TD*%
D25*
%TO.C,U6*%
X169075000Y-118927500D03*
X169725000Y-118927500D03*
X170375000Y-118927500D03*
X171025000Y-118927500D03*
D26*
X171937500Y-118015000D03*
X171937500Y-117365000D03*
X171937500Y-116715000D03*
X171937500Y-116065000D03*
D25*
X171025000Y-115152500D03*
X170375000Y-115152500D03*
X169725000Y-115152500D03*
X169075000Y-115152500D03*
D26*
X168162500Y-116065000D03*
X168162500Y-116715000D03*
X168162500Y-117365000D03*
X168162500Y-118015000D03*
D27*
X170050000Y-117040000D03*
%TD*%
D28*
%TO.C,R6*%
X125850000Y-103962500D03*
X125850000Y-102137500D03*
%TD*%
D21*
%TO.C,D3*%
X137050000Y-104250000D03*
X137050000Y-106300000D03*
%TD*%
D29*
%TO.C,L2*%
X128750000Y-115925000D03*
X128750000Y-114175000D03*
%TD*%
D10*
%TO.C,C23*%
X166412500Y-117940000D03*
X164687500Y-117940000D03*
%TD*%
D11*
%TO.C,C8*%
X143975000Y-90587500D03*
X143975000Y-92312500D03*
%TD*%
D14*
%TO.C,C1*%
X146757500Y-89390000D03*
X148482500Y-89390000D03*
%TD*%
D11*
%TO.C,C7*%
X137781000Y-90437500D03*
X137781000Y-92162500D03*
%TD*%
D30*
%TO.C,U5*%
X171602000Y-89993000D03*
X171602000Y-90643000D03*
X171602000Y-91293000D03*
X171602000Y-91943000D03*
X171602000Y-92593000D03*
X171602000Y-93243000D03*
X171602000Y-93893000D03*
X171602000Y-94543000D03*
X177327000Y-94543000D03*
X177327000Y-93893000D03*
X177327000Y-93243000D03*
X177327000Y-92593000D03*
X177327000Y-91943000D03*
X177327000Y-91293000D03*
X177327000Y-90643000D03*
X177327000Y-89993000D03*
%TD*%
D31*
%TO.C,R2*%
X146720000Y-90970000D03*
X148545000Y-90970000D03*
%TD*%
D14*
%TO.C,C20*%
X171284500Y-88478000D03*
X173009500Y-88478000D03*
%TD*%
D10*
%TO.C,C19*%
X172709500Y-96018000D03*
X170984500Y-96018000D03*
%TD*%
D32*
%TO.C,U1*%
X151587500Y-90650000D03*
X151587500Y-91450000D03*
X151587500Y-92250000D03*
X151587500Y-93050000D03*
X151587500Y-93850000D03*
X151587500Y-94650000D03*
X151587500Y-95450000D03*
X151587500Y-96250000D03*
X151587500Y-97050000D03*
X151587500Y-97850000D03*
X151587500Y-98650000D03*
D33*
X153250000Y-100312500D03*
X154050000Y-100312500D03*
X154850000Y-100312500D03*
X155650000Y-100312500D03*
X156450000Y-100312500D03*
X157250000Y-100312500D03*
X158050000Y-100312500D03*
X158850000Y-100312500D03*
X159650000Y-100312500D03*
X160450000Y-100312500D03*
X161250000Y-100312500D03*
D32*
X162912500Y-98650000D03*
X162912500Y-97850000D03*
X162912500Y-97050000D03*
X162912500Y-96250000D03*
X162912500Y-95450000D03*
X162912500Y-94650000D03*
X162912500Y-93850000D03*
X162912500Y-93050000D03*
X162912500Y-92250000D03*
X162912500Y-91450000D03*
X162912500Y-90650000D03*
D33*
X161250000Y-88987500D03*
X160450000Y-88987500D03*
X159650000Y-88987500D03*
X158850000Y-88987500D03*
X158050000Y-88987500D03*
X157250000Y-88987500D03*
X156450000Y-88987500D03*
X155650000Y-88987500D03*
X154850000Y-88987500D03*
X154050000Y-88987500D03*
X153250000Y-88987500D03*
%TD*%
D34*
%TO.C,SW1*%
X129750000Y-93320000D03*
X120850000Y-93320000D03*
X129750000Y-89320000D03*
X120850000Y-89320000D03*
%TD*%
D35*
%TO.C,J1*%
X117065000Y-109743000D03*
D36*
X117065000Y-111243000D03*
X117065000Y-112743000D03*
%TD*%
D37*
%TO.C,R3*%
X122875700Y-104760800D03*
X124070700Y-104760800D03*
%TD*%
D14*
%TO.C,C3*%
X156134000Y-86825000D03*
X157859000Y-86825000D03*
%TD*%
D23*
%TO.C,L3*%
X139246600Y-103850900D03*
X140996600Y-103850900D03*
%TD*%
D11*
%TO.C,C15*%
X179737000Y-89375500D03*
X179737000Y-91100500D03*
%TD*%
M02*
