%TF.GenerationSoftware,KiCad,Pcbnew,9.0.6*%
%TF.CreationDate,2026-05-26T14:44:59+03:00*%
%TF.ProjectId,Vibration_dsPIC33,56696272-6174-4696-9f6e-5f6473504943,rev?*%
%TF.SameCoordinates,Original*%
%TF.FileFunction,Legend,Top*%
%TF.FilePolarity,Positive*%
%FSLAX46Y46*%
G04 Gerber Fmt 4.6, Leading zero omitted, Abs format (unit mm)*
G04 Created by KiCad (PCBNEW 9.0.6) date 2026-05-26 14:44:59*
%MOMM*%
%LPD*%
G01*
G04 APERTURE LIST*
%ADD10C,0.200000*%
%ADD11C,0.300000*%
%ADD12C,0.120000*%
%ADD13C,0.150000*%
G04 APERTURE END LIST*
D10*
X119226816Y-108867219D02*
X119560149Y-109867219D01*
X119560149Y-109867219D02*
X119893482Y-108867219D01*
X119369673Y-111617219D02*
X119369673Y-110617219D01*
X119369673Y-110617219D02*
X119607768Y-110617219D01*
X119607768Y-110617219D02*
X119750625Y-110664838D01*
X119750625Y-110664838D02*
X119845863Y-110760076D01*
X119845863Y-110760076D02*
X119893482Y-110855314D01*
X119893482Y-110855314D02*
X119941101Y-111045790D01*
X119941101Y-111045790D02*
X119941101Y-111188647D01*
X119941101Y-111188647D02*
X119893482Y-111379123D01*
X119893482Y-111379123D02*
X119845863Y-111474361D01*
X119845863Y-111474361D02*
X119750625Y-111569600D01*
X119750625Y-111569600D02*
X119607768Y-111617219D01*
X119607768Y-111617219D02*
X119369673Y-111617219D01*
X120322054Y-111331504D02*
X120798244Y-111331504D01*
X120226816Y-111617219D02*
X120560149Y-110617219D01*
X120560149Y-110617219D02*
X120893482Y-111617219D01*
X121083959Y-110617219D02*
X121655387Y-110617219D01*
X121369673Y-111617219D02*
X121369673Y-110617219D01*
X121941102Y-111331504D02*
X122417292Y-111331504D01*
X121845864Y-111617219D02*
X122179197Y-110617219D01*
X122179197Y-110617219D02*
X122512530Y-111617219D01*
X122607769Y-111712457D02*
X123369673Y-111712457D01*
X123798245Y-110617219D02*
X123988721Y-110617219D01*
X123988721Y-110617219D02*
X124083959Y-110664838D01*
X124083959Y-110664838D02*
X124179197Y-110760076D01*
X124179197Y-110760076D02*
X124226816Y-110950552D01*
X124226816Y-110950552D02*
X124226816Y-111283885D01*
X124226816Y-111283885D02*
X124179197Y-111474361D01*
X124179197Y-111474361D02*
X124083959Y-111569600D01*
X124083959Y-111569600D02*
X123988721Y-111617219D01*
X123988721Y-111617219D02*
X123798245Y-111617219D01*
X123798245Y-111617219D02*
X123703007Y-111569600D01*
X123703007Y-111569600D02*
X123607769Y-111474361D01*
X123607769Y-111474361D02*
X123560150Y-111283885D01*
X123560150Y-111283885D02*
X123560150Y-110950552D01*
X123560150Y-110950552D02*
X123607769Y-110760076D01*
X123607769Y-110760076D02*
X123703007Y-110664838D01*
X123703007Y-110664838D02*
X123798245Y-110617219D01*
X124655388Y-110617219D02*
X124655388Y-111426742D01*
X124655388Y-111426742D02*
X124703007Y-111521980D01*
X124703007Y-111521980D02*
X124750626Y-111569600D01*
X124750626Y-111569600D02*
X124845864Y-111617219D01*
X124845864Y-111617219D02*
X125036340Y-111617219D01*
X125036340Y-111617219D02*
X125131578Y-111569600D01*
X125131578Y-111569600D02*
X125179197Y-111521980D01*
X125179197Y-111521980D02*
X125226816Y-111426742D01*
X125226816Y-111426742D02*
X125226816Y-110617219D01*
X125560150Y-110617219D02*
X126131578Y-110617219D01*
X125845864Y-111617219D02*
X125845864Y-110617219D01*
X119893482Y-112414838D02*
X119798244Y-112367219D01*
X119798244Y-112367219D02*
X119655387Y-112367219D01*
X119655387Y-112367219D02*
X119512530Y-112414838D01*
X119512530Y-112414838D02*
X119417292Y-112510076D01*
X119417292Y-112510076D02*
X119369673Y-112605314D01*
X119369673Y-112605314D02*
X119322054Y-112795790D01*
X119322054Y-112795790D02*
X119322054Y-112938647D01*
X119322054Y-112938647D02*
X119369673Y-113129123D01*
X119369673Y-113129123D02*
X119417292Y-113224361D01*
X119417292Y-113224361D02*
X119512530Y-113319600D01*
X119512530Y-113319600D02*
X119655387Y-113367219D01*
X119655387Y-113367219D02*
X119750625Y-113367219D01*
X119750625Y-113367219D02*
X119893482Y-113319600D01*
X119893482Y-113319600D02*
X119941101Y-113271980D01*
X119941101Y-113271980D02*
X119941101Y-112938647D01*
X119941101Y-112938647D02*
X119750625Y-112938647D01*
X120369673Y-113367219D02*
X120369673Y-112367219D01*
X120369673Y-112367219D02*
X120941101Y-113367219D01*
X120941101Y-113367219D02*
X120941101Y-112367219D01*
X121417292Y-113367219D02*
X121417292Y-112367219D01*
X121417292Y-112367219D02*
X121655387Y-112367219D01*
X121655387Y-112367219D02*
X121798244Y-112414838D01*
X121798244Y-112414838D02*
X121893482Y-112510076D01*
X121893482Y-112510076D02*
X121941101Y-112605314D01*
X121941101Y-112605314D02*
X121988720Y-112795790D01*
X121988720Y-112795790D02*
X121988720Y-112938647D01*
X121988720Y-112938647D02*
X121941101Y-113129123D01*
X121941101Y-113129123D02*
X121893482Y-113224361D01*
X121893482Y-113224361D02*
X121798244Y-113319600D01*
X121798244Y-113319600D02*
X121655387Y-113367219D01*
X121655387Y-113367219D02*
X121417292Y-113367219D01*
D11*
X129054510Y-80300828D02*
X129054510Y-78800828D01*
X129054510Y-78800828D02*
X129411653Y-78800828D01*
X129411653Y-78800828D02*
X129625939Y-78872257D01*
X129625939Y-78872257D02*
X129768796Y-79015114D01*
X129768796Y-79015114D02*
X129840225Y-79157971D01*
X129840225Y-79157971D02*
X129911653Y-79443685D01*
X129911653Y-79443685D02*
X129911653Y-79657971D01*
X129911653Y-79657971D02*
X129840225Y-79943685D01*
X129840225Y-79943685D02*
X129768796Y-80086542D01*
X129768796Y-80086542D02*
X129625939Y-80229400D01*
X129625939Y-80229400D02*
X129411653Y-80300828D01*
X129411653Y-80300828D02*
X129054510Y-80300828D01*
X130483082Y-80229400D02*
X130697368Y-80300828D01*
X130697368Y-80300828D02*
X131054510Y-80300828D01*
X131054510Y-80300828D02*
X131197368Y-80229400D01*
X131197368Y-80229400D02*
X131268796Y-80157971D01*
X131268796Y-80157971D02*
X131340225Y-80015114D01*
X131340225Y-80015114D02*
X131340225Y-79872257D01*
X131340225Y-79872257D02*
X131268796Y-79729400D01*
X131268796Y-79729400D02*
X131197368Y-79657971D01*
X131197368Y-79657971D02*
X131054510Y-79586542D01*
X131054510Y-79586542D02*
X130768796Y-79515114D01*
X130768796Y-79515114D02*
X130625939Y-79443685D01*
X130625939Y-79443685D02*
X130554510Y-79372257D01*
X130554510Y-79372257D02*
X130483082Y-79229400D01*
X130483082Y-79229400D02*
X130483082Y-79086542D01*
X130483082Y-79086542D02*
X130554510Y-78943685D01*
X130554510Y-78943685D02*
X130625939Y-78872257D01*
X130625939Y-78872257D02*
X130768796Y-78800828D01*
X130768796Y-78800828D02*
X131125939Y-78800828D01*
X131125939Y-78800828D02*
X131340225Y-78872257D01*
X131983081Y-80300828D02*
X131983081Y-78800828D01*
X131983081Y-78800828D02*
X132554510Y-78800828D01*
X132554510Y-78800828D02*
X132697367Y-78872257D01*
X132697367Y-78872257D02*
X132768796Y-78943685D01*
X132768796Y-78943685D02*
X132840224Y-79086542D01*
X132840224Y-79086542D02*
X132840224Y-79300828D01*
X132840224Y-79300828D02*
X132768796Y-79443685D01*
X132768796Y-79443685D02*
X132697367Y-79515114D01*
X132697367Y-79515114D02*
X132554510Y-79586542D01*
X132554510Y-79586542D02*
X131983081Y-79586542D01*
X133483081Y-80300828D02*
X133483081Y-78800828D01*
X135054510Y-80157971D02*
X134983082Y-80229400D01*
X134983082Y-80229400D02*
X134768796Y-80300828D01*
X134768796Y-80300828D02*
X134625939Y-80300828D01*
X134625939Y-80300828D02*
X134411653Y-80229400D01*
X134411653Y-80229400D02*
X134268796Y-80086542D01*
X134268796Y-80086542D02*
X134197367Y-79943685D01*
X134197367Y-79943685D02*
X134125939Y-79657971D01*
X134125939Y-79657971D02*
X134125939Y-79443685D01*
X134125939Y-79443685D02*
X134197367Y-79157971D01*
X134197367Y-79157971D02*
X134268796Y-79015114D01*
X134268796Y-79015114D02*
X134411653Y-78872257D01*
X134411653Y-78872257D02*
X134625939Y-78800828D01*
X134625939Y-78800828D02*
X134768796Y-78800828D01*
X134768796Y-78800828D02*
X134983082Y-78872257D01*
X134983082Y-78872257D02*
X135054510Y-78943685D01*
X135554510Y-78800828D02*
X136483082Y-78800828D01*
X136483082Y-78800828D02*
X135983082Y-79372257D01*
X135983082Y-79372257D02*
X136197367Y-79372257D01*
X136197367Y-79372257D02*
X136340225Y-79443685D01*
X136340225Y-79443685D02*
X136411653Y-79515114D01*
X136411653Y-79515114D02*
X136483082Y-79657971D01*
X136483082Y-79657971D02*
X136483082Y-80015114D01*
X136483082Y-80015114D02*
X136411653Y-80157971D01*
X136411653Y-80157971D02*
X136340225Y-80229400D01*
X136340225Y-80229400D02*
X136197367Y-80300828D01*
X136197367Y-80300828D02*
X135768796Y-80300828D01*
X135768796Y-80300828D02*
X135625939Y-80229400D01*
X135625939Y-80229400D02*
X135554510Y-80157971D01*
X136983081Y-78800828D02*
X137911653Y-78800828D01*
X137911653Y-78800828D02*
X137411653Y-79372257D01*
X137411653Y-79372257D02*
X137625938Y-79372257D01*
X137625938Y-79372257D02*
X137768796Y-79443685D01*
X137768796Y-79443685D02*
X137840224Y-79515114D01*
X137840224Y-79515114D02*
X137911653Y-79657971D01*
X137911653Y-79657971D02*
X137911653Y-80015114D01*
X137911653Y-80015114D02*
X137840224Y-80157971D01*
X137840224Y-80157971D02*
X137768796Y-80229400D01*
X137768796Y-80229400D02*
X137625938Y-80300828D01*
X137625938Y-80300828D02*
X137197367Y-80300828D01*
X137197367Y-80300828D02*
X137054510Y-80229400D01*
X137054510Y-80229400D02*
X136983081Y-80157971D01*
X139054509Y-79515114D02*
X138554509Y-79515114D01*
X138554509Y-80300828D02*
X138554509Y-78800828D01*
X138554509Y-78800828D02*
X139268795Y-78800828D01*
X140983080Y-80300828D02*
X140983080Y-78800828D01*
X140983080Y-78800828D02*
X141483080Y-79872257D01*
X141483080Y-79872257D02*
X141983080Y-78800828D01*
X141983080Y-78800828D02*
X141983080Y-80300828D01*
X142911652Y-80300828D02*
X142768795Y-80229400D01*
X142768795Y-80229400D02*
X142697366Y-80157971D01*
X142697366Y-80157971D02*
X142625938Y-80015114D01*
X142625938Y-80015114D02*
X142625938Y-79586542D01*
X142625938Y-79586542D02*
X142697366Y-79443685D01*
X142697366Y-79443685D02*
X142768795Y-79372257D01*
X142768795Y-79372257D02*
X142911652Y-79300828D01*
X142911652Y-79300828D02*
X143125938Y-79300828D01*
X143125938Y-79300828D02*
X143268795Y-79372257D01*
X143268795Y-79372257D02*
X143340224Y-79443685D01*
X143340224Y-79443685D02*
X143411652Y-79586542D01*
X143411652Y-79586542D02*
X143411652Y-80015114D01*
X143411652Y-80015114D02*
X143340224Y-80157971D01*
X143340224Y-80157971D02*
X143268795Y-80229400D01*
X143268795Y-80229400D02*
X143125938Y-80300828D01*
X143125938Y-80300828D02*
X142911652Y-80300828D01*
X143840224Y-79300828D02*
X144411652Y-79300828D01*
X144054509Y-78800828D02*
X144054509Y-80086542D01*
X144054509Y-80086542D02*
X144125938Y-80229400D01*
X144125938Y-80229400D02*
X144268795Y-80300828D01*
X144268795Y-80300828D02*
X144411652Y-80300828D01*
X145125938Y-80300828D02*
X144983081Y-80229400D01*
X144983081Y-80229400D02*
X144911652Y-80157971D01*
X144911652Y-80157971D02*
X144840224Y-80015114D01*
X144840224Y-80015114D02*
X144840224Y-79586542D01*
X144840224Y-79586542D02*
X144911652Y-79443685D01*
X144911652Y-79443685D02*
X144983081Y-79372257D01*
X144983081Y-79372257D02*
X145125938Y-79300828D01*
X145125938Y-79300828D02*
X145340224Y-79300828D01*
X145340224Y-79300828D02*
X145483081Y-79372257D01*
X145483081Y-79372257D02*
X145554510Y-79443685D01*
X145554510Y-79443685D02*
X145625938Y-79586542D01*
X145625938Y-79586542D02*
X145625938Y-80015114D01*
X145625938Y-80015114D02*
X145554510Y-80157971D01*
X145554510Y-80157971D02*
X145483081Y-80229400D01*
X145483081Y-80229400D02*
X145340224Y-80300828D01*
X145340224Y-80300828D02*
X145125938Y-80300828D01*
X146268795Y-80300828D02*
X146268795Y-79300828D01*
X146268795Y-79586542D02*
X146340224Y-79443685D01*
X146340224Y-79443685D02*
X146411653Y-79372257D01*
X146411653Y-79372257D02*
X146554510Y-79300828D01*
X146554510Y-79300828D02*
X146697367Y-79300828D01*
X148125938Y-78800828D02*
X148625938Y-80300828D01*
X148625938Y-80300828D02*
X149125938Y-78800828D01*
X149625937Y-80300828D02*
X149625937Y-79300828D01*
X149625937Y-78800828D02*
X149554509Y-78872257D01*
X149554509Y-78872257D02*
X149625937Y-78943685D01*
X149625937Y-78943685D02*
X149697366Y-78872257D01*
X149697366Y-78872257D02*
X149625937Y-78800828D01*
X149625937Y-78800828D02*
X149625937Y-78943685D01*
X150340223Y-80300828D02*
X150340223Y-78800828D01*
X150340223Y-79372257D02*
X150483081Y-79300828D01*
X150483081Y-79300828D02*
X150768795Y-79300828D01*
X150768795Y-79300828D02*
X150911652Y-79372257D01*
X150911652Y-79372257D02*
X150983081Y-79443685D01*
X150983081Y-79443685D02*
X151054509Y-79586542D01*
X151054509Y-79586542D02*
X151054509Y-80015114D01*
X151054509Y-80015114D02*
X150983081Y-80157971D01*
X150983081Y-80157971D02*
X150911652Y-80229400D01*
X150911652Y-80229400D02*
X150768795Y-80300828D01*
X150768795Y-80300828D02*
X150483081Y-80300828D01*
X150483081Y-80300828D02*
X150340223Y-80229400D01*
X151697366Y-80300828D02*
X151697366Y-79300828D01*
X151697366Y-79586542D02*
X151768795Y-79443685D01*
X151768795Y-79443685D02*
X151840224Y-79372257D01*
X151840224Y-79372257D02*
X151983081Y-79300828D01*
X151983081Y-79300828D02*
X152125938Y-79300828D01*
X153268795Y-80300828D02*
X153268795Y-79515114D01*
X153268795Y-79515114D02*
X153197366Y-79372257D01*
X153197366Y-79372257D02*
X153054509Y-79300828D01*
X153054509Y-79300828D02*
X152768795Y-79300828D01*
X152768795Y-79300828D02*
X152625937Y-79372257D01*
X153268795Y-80229400D02*
X153125937Y-80300828D01*
X153125937Y-80300828D02*
X152768795Y-80300828D01*
X152768795Y-80300828D02*
X152625937Y-80229400D01*
X152625937Y-80229400D02*
X152554509Y-80086542D01*
X152554509Y-80086542D02*
X152554509Y-79943685D01*
X152554509Y-79943685D02*
X152625937Y-79800828D01*
X152625937Y-79800828D02*
X152768795Y-79729400D01*
X152768795Y-79729400D02*
X153125937Y-79729400D01*
X153125937Y-79729400D02*
X153268795Y-79657971D01*
X153768795Y-79300828D02*
X154340223Y-79300828D01*
X153983080Y-78800828D02*
X153983080Y-80086542D01*
X153983080Y-80086542D02*
X154054509Y-80229400D01*
X154054509Y-80229400D02*
X154197366Y-80300828D01*
X154197366Y-80300828D02*
X154340223Y-80300828D01*
X154840223Y-80300828D02*
X154840223Y-79300828D01*
X154840223Y-78800828D02*
X154768795Y-78872257D01*
X154768795Y-78872257D02*
X154840223Y-78943685D01*
X154840223Y-78943685D02*
X154911652Y-78872257D01*
X154911652Y-78872257D02*
X154840223Y-78800828D01*
X154840223Y-78800828D02*
X154840223Y-78943685D01*
X155768795Y-80300828D02*
X155625938Y-80229400D01*
X155625938Y-80229400D02*
X155554509Y-80157971D01*
X155554509Y-80157971D02*
X155483081Y-80015114D01*
X155483081Y-80015114D02*
X155483081Y-79586542D01*
X155483081Y-79586542D02*
X155554509Y-79443685D01*
X155554509Y-79443685D02*
X155625938Y-79372257D01*
X155625938Y-79372257D02*
X155768795Y-79300828D01*
X155768795Y-79300828D02*
X155983081Y-79300828D01*
X155983081Y-79300828D02*
X156125938Y-79372257D01*
X156125938Y-79372257D02*
X156197367Y-79443685D01*
X156197367Y-79443685D02*
X156268795Y-79586542D01*
X156268795Y-79586542D02*
X156268795Y-80015114D01*
X156268795Y-80015114D02*
X156197367Y-80157971D01*
X156197367Y-80157971D02*
X156125938Y-80229400D01*
X156125938Y-80229400D02*
X155983081Y-80300828D01*
X155983081Y-80300828D02*
X155768795Y-80300828D01*
X156911652Y-79300828D02*
X156911652Y-80300828D01*
X156911652Y-79443685D02*
X156983081Y-79372257D01*
X156983081Y-79372257D02*
X157125938Y-79300828D01*
X157125938Y-79300828D02*
X157340224Y-79300828D01*
X157340224Y-79300828D02*
X157483081Y-79372257D01*
X157483081Y-79372257D02*
X157554510Y-79515114D01*
X157554510Y-79515114D02*
X157554510Y-80300828D01*
X159340224Y-79872257D02*
X160054510Y-79872257D01*
X159197367Y-80300828D02*
X159697367Y-78800828D01*
X159697367Y-78800828D02*
X160197367Y-80300828D01*
X160697366Y-79300828D02*
X160697366Y-80300828D01*
X160697366Y-79443685D02*
X160768795Y-79372257D01*
X160768795Y-79372257D02*
X160911652Y-79300828D01*
X160911652Y-79300828D02*
X161125938Y-79300828D01*
X161125938Y-79300828D02*
X161268795Y-79372257D01*
X161268795Y-79372257D02*
X161340224Y-79515114D01*
X161340224Y-79515114D02*
X161340224Y-80300828D01*
X162697367Y-80300828D02*
X162697367Y-79515114D01*
X162697367Y-79515114D02*
X162625938Y-79372257D01*
X162625938Y-79372257D02*
X162483081Y-79300828D01*
X162483081Y-79300828D02*
X162197367Y-79300828D01*
X162197367Y-79300828D02*
X162054509Y-79372257D01*
X162697367Y-80229400D02*
X162554509Y-80300828D01*
X162554509Y-80300828D02*
X162197367Y-80300828D01*
X162197367Y-80300828D02*
X162054509Y-80229400D01*
X162054509Y-80229400D02*
X161983081Y-80086542D01*
X161983081Y-80086542D02*
X161983081Y-79943685D01*
X161983081Y-79943685D02*
X162054509Y-79800828D01*
X162054509Y-79800828D02*
X162197367Y-79729400D01*
X162197367Y-79729400D02*
X162554509Y-79729400D01*
X162554509Y-79729400D02*
X162697367Y-79657971D01*
X163625938Y-80300828D02*
X163483081Y-80229400D01*
X163483081Y-80229400D02*
X163411652Y-80086542D01*
X163411652Y-80086542D02*
X163411652Y-78800828D01*
X164054509Y-79300828D02*
X164411652Y-80300828D01*
X164768795Y-79300828D02*
X164411652Y-80300828D01*
X164411652Y-80300828D02*
X164268795Y-80657971D01*
X164268795Y-80657971D02*
X164197366Y-80729400D01*
X164197366Y-80729400D02*
X164054509Y-80800828D01*
X165197366Y-79300828D02*
X165983081Y-79300828D01*
X165983081Y-79300828D02*
X165197366Y-80300828D01*
X165197366Y-80300828D02*
X165983081Y-80300828D01*
X167125938Y-80229400D02*
X166983081Y-80300828D01*
X166983081Y-80300828D02*
X166697367Y-80300828D01*
X166697367Y-80300828D02*
X166554509Y-80229400D01*
X166554509Y-80229400D02*
X166483081Y-80086542D01*
X166483081Y-80086542D02*
X166483081Y-79515114D01*
X166483081Y-79515114D02*
X166554509Y-79372257D01*
X166554509Y-79372257D02*
X166697367Y-79300828D01*
X166697367Y-79300828D02*
X166983081Y-79300828D01*
X166983081Y-79300828D02*
X167125938Y-79372257D01*
X167125938Y-79372257D02*
X167197367Y-79515114D01*
X167197367Y-79515114D02*
X167197367Y-79657971D01*
X167197367Y-79657971D02*
X166483081Y-79800828D01*
X167840223Y-80300828D02*
X167840223Y-79300828D01*
X167840223Y-79586542D02*
X167911652Y-79443685D01*
X167911652Y-79443685D02*
X167983081Y-79372257D01*
X167983081Y-79372257D02*
X168125938Y-79300828D01*
X168125938Y-79300828D02*
X168268795Y-79300828D01*
D12*
%TO.C,C9*%
X126146267Y-86370000D02*
X125853733Y-86370000D01*
X126146267Y-87390000D02*
X125853733Y-87390000D01*
%TO.C,C17*%
X142390000Y-105028733D02*
X142390000Y-105321267D01*
X143410000Y-105028733D02*
X143410000Y-105321267D01*
D13*
%TO.C,U4*%
X128775000Y-100525000D02*
X128775000Y-100700000D01*
X128775000Y-100525000D02*
X133425000Y-100525000D01*
X128775000Y-105775000D02*
X128775000Y-105600000D01*
X128775000Y-105775000D02*
X133425000Y-105775000D01*
X133425000Y-100525000D02*
X133425000Y-100700000D01*
X133425000Y-105775000D02*
X133425000Y-105600000D01*
D12*
X128300000Y-100700000D02*
X128060000Y-100370000D01*
X128540000Y-100370000D01*
X128300000Y-100700000D01*
G36*
X128300000Y-100700000D02*
G01*
X128060000Y-100370000D01*
X128540000Y-100370000D01*
X128300000Y-100700000D01*
G37*
%TO.C,C22*%
X172558767Y-112530000D02*
X172266233Y-112530000D01*
X172558767Y-113550000D02*
X172266233Y-113550000D01*
%TO.C,C21*%
X168391233Y-112530000D02*
X168683767Y-112530000D01*
X168391233Y-113550000D02*
X168683767Y-113550000D01*
%TO.C,R4*%
X150694724Y-104237500D02*
X150185276Y-104237500D01*
X150694724Y-105282500D02*
X150185276Y-105282500D01*
%TO.C,C18*%
X168717000Y-93871733D02*
X168717000Y-94164267D01*
X169737000Y-93871733D02*
X169737000Y-94164267D01*
%TO.C,U2*%
X140002500Y-89690000D02*
X141822500Y-89690000D01*
X140002500Y-89740000D02*
X140002500Y-89690000D01*
X140002500Y-92810000D02*
X140002500Y-92760000D01*
X141822500Y-89690000D02*
X141822500Y-89740000D01*
X141822500Y-90860000D02*
X141822500Y-91640000D01*
X141822500Y-92760000D02*
X141822500Y-92810000D01*
X141822500Y-92810000D02*
X140002500Y-92810000D01*
X139462500Y-89740000D02*
X139222500Y-89410000D01*
X139702500Y-89410000D01*
X139462500Y-89740000D01*
G36*
X139462500Y-89740000D02*
G01*
X139222500Y-89410000D01*
X139702500Y-89410000D01*
X139462500Y-89740000D01*
G37*
%TO.C,C6*%
X120677200Y-103598533D02*
X120677200Y-103891067D01*
X121697200Y-103598533D02*
X121697200Y-103891067D01*
%TO.C,C4*%
X118137200Y-103598533D02*
X118137200Y-103891067D01*
X119157200Y-103598533D02*
X119157200Y-103891067D01*
%TO.C,C5*%
X148990000Y-94253733D02*
X148990000Y-94546267D01*
X150010000Y-94253733D02*
X150010000Y-94546267D01*
%TO.C,U3*%
X136077500Y-113640000D02*
X137897500Y-113640000D01*
X136077500Y-113690000D02*
X136077500Y-113640000D01*
X136077500Y-116760000D02*
X136077500Y-116710000D01*
X137897500Y-113640000D02*
X137897500Y-113690000D01*
X137897500Y-114810000D02*
X137897500Y-115590000D01*
X137897500Y-116710000D02*
X137897500Y-116760000D01*
X137897500Y-116760000D02*
X136077500Y-116760000D01*
X135537500Y-113690000D02*
X135297500Y-113360000D01*
X135777500Y-113360000D01*
X135537500Y-113690000D01*
G36*
X135537500Y-113690000D02*
G01*
X135297500Y-113360000D01*
X135777500Y-113360000D01*
X135537500Y-113690000D01*
G37*
%TO.C,C10*%
X133623067Y-98862300D02*
X133330533Y-98862300D01*
X133623067Y-99882300D02*
X133330533Y-99882300D01*
%TO.C,R5*%
X129764724Y-86437500D02*
X129255276Y-86437500D01*
X129764724Y-87482500D02*
X129255276Y-87482500D01*
%TO.C,D2*%
X149405000Y-107720000D02*
X152265000Y-107720000D01*
X152265000Y-105800000D02*
X149405000Y-105800000D01*
X152265000Y-107720000D02*
X152265000Y-105800000D01*
%TO.C,C16*%
X139615000Y-115041233D02*
X139615000Y-115333767D01*
X140635000Y-115041233D02*
X140635000Y-115333767D01*
%TO.C,J2*%
X169559000Y-104646200D02*
X169559000Y-103901200D01*
X170294000Y-104646200D02*
X169559000Y-104646200D01*
X171029000Y-103156200D02*
X175904000Y-103156200D01*
X171029000Y-103215635D02*
X171029000Y-103156200D01*
X171029000Y-104646200D02*
X171029000Y-104586765D01*
X171029000Y-104646200D02*
X175904000Y-104646200D01*
X175904000Y-103491170D02*
X175904000Y-103156200D01*
X175904000Y-104646200D02*
X175904000Y-104311230D01*
%TO.C,R1*%
X147884724Y-87207500D02*
X147375276Y-87207500D01*
X147884724Y-88252500D02*
X147375276Y-88252500D01*
%TO.C,C11*%
X135940000Y-101179633D02*
X135940000Y-101472167D01*
X136960000Y-101179633D02*
X136960000Y-101472167D01*
%TO.C,C13*%
X132815000Y-114941233D02*
X132815000Y-115233767D01*
X133835000Y-114941233D02*
X133835000Y-115233767D01*
%TO.C,D1*%
X115401200Y-101630800D02*
X115401200Y-104490800D01*
X117321200Y-101630800D02*
X115401200Y-101630800D01*
X117321200Y-104490800D02*
X117321200Y-101630800D01*
%TO.C,C2*%
X164715000Y-94413767D02*
X164715000Y-94121233D01*
X165735000Y-94413767D02*
X165735000Y-94121233D01*
%TO.C,L1*%
X119745933Y-100440800D02*
X120088467Y-100440800D01*
X119745933Y-101460800D02*
X120088467Y-101460800D01*
%TO.C,C24*%
X165646267Y-115830000D02*
X165353733Y-115830000D01*
X165646267Y-116850000D02*
X165353733Y-116850000D01*
%TO.C,C14*%
X168717000Y-90321733D02*
X168717000Y-90614267D01*
X169737000Y-90321733D02*
X169737000Y-90614267D01*
%TO.C,C12*%
X130190000Y-114688748D02*
X130190000Y-115211252D01*
X131660000Y-114688748D02*
X131660000Y-115211252D01*
%TO.C,U6*%
X167940000Y-114930000D02*
X168640000Y-114930000D01*
X167940000Y-115630000D02*
X167940000Y-114930000D01*
X167940000Y-119150000D02*
X167940000Y-118450000D01*
X168640000Y-119150000D02*
X167940000Y-119150000D01*
X171460000Y-114930000D02*
X172160000Y-114930000D01*
X172160000Y-114930000D02*
X172160000Y-115630000D01*
X172160000Y-118450000D02*
X172160000Y-119150000D01*
X172160000Y-119150000D02*
X171460000Y-119150000D01*
X169310000Y-120010000D02*
X168830000Y-120010000D01*
X169070000Y-119680000D01*
X169310000Y-120010000D01*
G36*
X169310000Y-120010000D02*
G01*
X168830000Y-120010000D01*
X169070000Y-119680000D01*
X169310000Y-120010000D01*
G37*
%TO.C,R6*%
X125327500Y-103304724D02*
X125327500Y-102795276D01*
X126372500Y-103304724D02*
X126372500Y-102795276D01*
%TO.C,D3*%
X136090000Y-103415000D02*
X136090000Y-106275000D01*
X138010000Y-103415000D02*
X136090000Y-103415000D01*
X138010000Y-106275000D02*
X138010000Y-103415000D01*
%TO.C,L2*%
X128240000Y-115221267D02*
X128240000Y-114878733D01*
X129260000Y-115221267D02*
X129260000Y-114878733D01*
%TO.C,C23*%
X165696267Y-117430000D02*
X165403733Y-117430000D01*
X165696267Y-118450000D02*
X165403733Y-118450000D01*
%TO.C,C8*%
X143465000Y-91303733D02*
X143465000Y-91596267D01*
X144485000Y-91303733D02*
X144485000Y-91596267D01*
%TO.C,C1*%
X147473733Y-88880000D02*
X147766267Y-88880000D01*
X147473733Y-89900000D02*
X147766267Y-89900000D01*
%TO.C,C7*%
X137271000Y-91153733D02*
X137271000Y-91446267D01*
X138291000Y-91153733D02*
X138291000Y-91446267D01*
%TO.C,U5*%
X172154500Y-89533000D02*
X176774500Y-89533000D01*
X176774500Y-95003000D02*
X172154500Y-95003000D01*
X170604500Y-89988000D02*
X170274500Y-90228000D01*
X170274500Y-89748000D01*
X170604500Y-89988000D01*
G36*
X170604500Y-89988000D02*
G01*
X170274500Y-90228000D01*
X170274500Y-89748000D01*
X170604500Y-89988000D01*
G37*
%TO.C,R2*%
X147377776Y-90447500D02*
X147887224Y-90447500D01*
X147377776Y-91492500D02*
X147887224Y-91492500D01*
%TO.C,C20*%
X172000733Y-87968000D02*
X172293267Y-87968000D01*
X172000733Y-88988000D02*
X172293267Y-88988000D01*
%TO.C,C19*%
X171993267Y-95508000D02*
X171700733Y-95508000D01*
X171993267Y-96528000D02*
X171700733Y-96528000D01*
%TO.C,U1*%
X152140000Y-89540000D02*
X152715000Y-89540000D01*
X152140000Y-90115000D02*
X152140000Y-89540000D01*
X152140000Y-99760000D02*
X152140000Y-99185000D01*
X152715000Y-99760000D02*
X152140000Y-99760000D01*
X161785000Y-89540000D02*
X162360000Y-89540000D01*
X162360000Y-89540000D02*
X162360000Y-90115000D01*
X162360000Y-99185000D02*
X162360000Y-99760000D01*
X162360000Y-99760000D02*
X161785000Y-99760000D01*
X151500000Y-90110000D02*
X151160000Y-89640000D01*
X151840000Y-89640000D01*
X151500000Y-90110000D01*
G36*
X151500000Y-90110000D02*
G01*
X151160000Y-89640000D01*
X151840000Y-89640000D01*
X151500000Y-90110000D01*
G37*
%TO.C,SW1*%
X122090000Y-88110000D02*
X122090000Y-88390000D01*
X122090000Y-90120000D02*
X122090000Y-92520000D01*
X122090000Y-94120000D02*
X122090000Y-94530000D01*
X122090000Y-94530000D02*
X128510000Y-94530000D01*
X128510000Y-88110000D02*
X122090000Y-88110000D01*
X128510000Y-88520000D02*
X128510000Y-88110000D01*
X128510000Y-92520000D02*
X128510000Y-90120000D01*
X128510000Y-94530000D02*
X128510000Y-94120000D01*
%TO.C,J1*%
X114755000Y-108133000D02*
X114755000Y-114353000D01*
X114755000Y-114353000D02*
X118475000Y-114353000D01*
X114955000Y-108333000D02*
X114955000Y-114153000D01*
X114955000Y-114153000D02*
X116715000Y-114153000D01*
X116715000Y-108333000D02*
X114955000Y-108333000D01*
X116715000Y-108333000D02*
X116715000Y-108133000D01*
X116715000Y-114153000D02*
X116715000Y-114353000D01*
X117415000Y-108133000D02*
X117415000Y-108333000D01*
X117415000Y-108333000D02*
X116715000Y-108333000D01*
X117415000Y-108333000D02*
X118275000Y-108333000D01*
X117415000Y-114153000D02*
X116715000Y-114153000D01*
X117415000Y-114153000D02*
X117415000Y-114353000D01*
X118275000Y-108333000D02*
X118275000Y-114153000D01*
X118275000Y-114153000D02*
X117415000Y-114153000D01*
X118475000Y-108133000D02*
X114755000Y-108133000D01*
X118475000Y-114353000D02*
X118475000Y-108133000D01*
X118775000Y-107833000D02*
X117525000Y-107833000D01*
X118775000Y-109083000D02*
X118775000Y-107833000D01*
%TO.C,R3*%
X123305579Y-104380800D02*
X123640821Y-104380800D01*
X123305579Y-105140800D02*
X123640821Y-105140800D01*
%TO.C,C3*%
X156850233Y-86315000D02*
X157142767Y-86315000D01*
X156850233Y-87335000D02*
X157142767Y-87335000D01*
%TO.C,L3*%
X139950333Y-103340900D02*
X140292867Y-103340900D01*
X139950333Y-104360900D02*
X140292867Y-104360900D01*
%TO.C,C15*%
X179227000Y-90091733D02*
X179227000Y-90384267D01*
X180247000Y-90091733D02*
X180247000Y-90384267D01*
%TD*%
M02*
