M48
; DRILL file {KiCad 9.0.6} date 2026-05-26T14:43:10+0300
; FORMAT={-:-/ absolute / metric / decimal}
; #@! TF.CreationDate,2026-05-26T14:43:10+03:00
; #@! TF.GenerationSoftware,Kicad,Pcbnew,9.0.6
; #@! TF.FileFunction,Plated,1,2,PTH
FMAT,2
METRIC
; #@! TA.AperFunction,Plated,PTH,ViaDrill
T1C0.250
; #@! TA.AperFunction,Plated,PTH,ViaDrill
T2C0.300
; #@! TA.AperFunction,Plated,PTH,ComponentDrill
T3C0.500
; #@! TA.AperFunction,Plated,PTH,ComponentDrill
T4C0.870
%
G90
G05
T1
X170.4Y-119.94
X173.2Y-116.49
X173.2Y-117.34
X173.2Y-118.19
T2
X118.65Y-105.85
X119.75Y-104.5
X120.85Y-91.87
X123.48Y-86.89
X124.1Y-105.65
X125.85Y-100.95
X129.75Y-91.94
X130.35Y-102.25
X130.35Y-104.05
X130.9Y-117.25
X131.35Y-99.4
X131.85Y-102.25
X131.85Y-104.05
X133.35Y-117.2
X137.05Y-107.5
X137.2Y-115.2
X137.6Y-102.2
X137.75Y-93.3
X138.5Y-106.25
X140.1Y-117.4
X141.75Y-106.0
X142.95Y-107.25
X144.0Y-93.5
X145.25Y-92.25
X148.15Y-93.31
X149.81Y-89.4
X152.87Y-106.75
X156.14Y-101.66
X159.05Y-86.8
X161.27Y-96.942
X163.3Y-116.34
X163.4Y-117.94
X164.623Y-97.805
X165.25Y-92.2
X166.24Y-113.03
X167.468Y-96.84
X167.468Y-99.634
X171.0Y-96.958
X174.417Y-88.498
X174.77Y-113.03
X178.733Y-91.077
T3
X170.294Y-103.901
X171.294Y-103.901
X172.294Y-103.901
X173.294Y-103.901
X174.294Y-103.901
X175.294Y-103.901
T4
X117.065Y-109.743
X117.065Y-111.243
X117.065Y-112.743
M30
